<?xml version="1.0" encoding="UTF-8"?>
<!-- Generator: Adobe Illustrator 25.0.1, SVG Export Plug-In . SVG Version: 6.00 Build 0)  -->
<svg xmlns="http://www.w3.org/2000/svg" xmlns:xlink="http://www.w3.org/1999/xlink" version="1.1" id="Layer_1" x="0px" y="0px" viewBox="0 0 390 390" style="enable-background:new 0 0 390 390;" xml:space="preserve">
<style type="text/css">
	.st0{fill:#00ADEE;}
	.st1{fill:#231F20;}
	.st2{fill:#404041;}
	.st3{fill:#23A85F;}
	.st4{fill:#EC297B;}
	.st5{fill:#FFDD15;}
	.st6{fill:#2DDB7C;}
	.st7{fill:#73E0A6;}
	.st8{fill:#325C46;}
	.st9{fill:#22A960;}
	.st10{fill:#E0ECBC;}
	.st11{fill:#FCF7ED;}
	.st12{fill:#FFFFFF;}
	.st13{fill:#1DA75E;}
	.st14{fill:#81C99E;}
	.st15{fill:#12292C;}
	.st16{fill:#145D45;}
	.st17{fill:#FCDF80;}
	.st18{fill:#4890CD;}
	.st19{fill:#E9EADF;}
	.st20{fill:#9EB0A1;}
	.st21{fill:#3B4B40;}
	.st22{fill:#20A85F;}
	.st23{fill:#221F1F;}
	.st24{fill:#F05D58;}
	.st25{fill:#027782;}
</style>
<rect x="-258.9" y="-207.6" class="st0" width="46.7" height="46.7"></rect>
<rect x="-371.5" y="-207.6" class="st1" width="46.7" height="46.7"></rect>
<rect x="-92.2" y="-207.6" class="st2" width="46.7" height="46.7"></rect>
<rect x="-315.2" y="-207.6" class="st3" width="46.7" height="46.7"></rect>
<rect x="-202.6" y="-207.6" class="st4" width="46.7" height="46.7"></rect>
<rect x="-146.2" y="-207.6" class="st5" width="46.7" height="46.7"></rect>
<rect x="287.8" y="-213" class="st6" width="57.5" height="57.5"></rect>
<rect x="148.9" y="-213" class="st3" width="57.5" height="57.5"></rect>
<rect x="218.3" y="-213" class="st7" width="57.5" height="57.5"></rect>
<rect x="10.1" y="-213" class="st8" width="57.5" height="57.5"></rect>
<rect x="79.5" y="-213" class="st9" width="57.5" height="57.5"></rect>
<rect x="289.7" y="-280.6" class="st10" width="57.5" height="57.5"></rect>
<rect x="360.3" y="-280.6" class="st11" width="57.5" height="57.5"></rect>
<rect x="430.8" y="-280.6" class="st12" width="57.5" height="57.5"></rect>
<rect x="148.6" y="-280.6" class="st13" width="57.5" height="57.5"></rect>
<rect x="219.1" y="-280.6" class="st14" width="57.5" height="57.5"></rect>
<rect x="7.5" y="-280.6" class="st15" width="57.5" height="57.5"></rect>
<rect x="78" y="-280.6" class="st16" width="57.5" height="57.5"></rect>
<rect x="632.3" y="-338" class="st17" width="63.6" height="63.6"></rect>
<rect x="697" y="-338" class="st18" width="63.6" height="63.6"></rect>
<rect x="632.3" y="-273.3" class="st19" width="63.6" height="63.6"></rect>
<rect x="567.6" y="-338" class="st20" width="63.6" height="63.6"></rect>
<rect x="567.6" y="-208.6" class="st21" width="63.6" height="63.6"></rect>
<rect x="632.3" y="-208.6" class="st22" width="63.6" height="63.6"></rect>
<rect x="697" y="-208.6" class="st23" width="63.6" height="63.6"></rect>
<rect x="697" y="-273.3" class="st24" width="63.6" height="63.6"></rect>
<rect x="567.6" y="-273.3" class="st25" width="63.6" height="63.6"></rect>
<g>
	<g>
		<path d="M312.7,97.3H85.8c-3.4,0-6.1-2.7-6.1-6.1c0-3.4,2.7-6.1,6.1-6.1h226.9c3.4,0,6.1,2.7,6.1,6.1    C318.8,94.6,316.1,97.3,312.7,97.3L312.7,97.3z"></path>
		<path d="M312.7,153.3H85.8c-3.4,0-6.1-2.7-6.1-6.1c0-3.4,2.7-6.1,6.1-6.1h226.9c3.4,0,6.1,2.7,6.1,6.1    C318.8,150.5,316.1,153.3,312.7,153.3L312.7,153.3z"></path>
		<path d="M90.2,351.4c-2.2,0-4.4-0.5-6.4-1.5c-4.9-2.4-8-7.4-8-12.9v-78.6l-46.7,0c-10.9,0-22.7-7.6-22.7-24.2V25.8    C6.4,9,18.1,2.3,28.2,1.6c0.4,0,0.6,0,0.9,0h331.9c10.9,0,22.7,7.6,22.7,24.2v208.4c0,16.6-11.8,24.2-22.7,24.2H217.8L98.8,348.5    C96.4,350.3,93.3,351.4,90.2,351.4L90.2,351.4z M29.1,13.8c-4,0.2-10.5,2.1-10.5,12.1v208.4c0,10.9,7.4,12.1,10.5,12.1h52.8    c3.4,0,6.1,2.7,6.1,6.1V337c0,0.9,0.5,1.6,1.2,2c0.6,0.3,1.4,0.5,2.3-0.2l120.6-91.3c1.1-0.8,2.3-1.2,3.7-1.2h145.2    c3.2,0,10.5-1.2,10.5-12.1V25.8c0-10.9-7.4-12.1-10.5-12.1L29.1,13.8L29.1,13.8z"></path>
	</g>
	<path class="st3" d="M373.3,258.4c4.5,0,8.3,3.8,8.3,8.3v83c0,4.5-3.8,8.3-8.3,8.3h-20.7v26.3c0,3.6-4.3,5.5-7,3.1l-32-29.3   l-89.6,0c-4.5,0-8.3-3.8-8.3-8.3v-83c0-4.5,3.8-8.3,8.3-8.3L373.3,258.4z M353,279.2c-0.1,0-0.3,0-0.4,0l-107.8,0   c-5.5,0-5.5,8.3,0,8.3l107.8,0C358.1,287.8,358.5,279.5,353,279.2z M353,304.1c-0.1,0-0.3,0-0.4,0l-107.8,0c-5.7-0.1-5.7,8.4,0,8.3   l107.8,0C357.9,312.5,358.4,304.5,353,304.1z M281.6,329c-5.7,0.1-5.2,8.8,0.5,8.3l70.5,0c5.1-0.1,5.5-7.6,0.4-8.3   c-0.1,0-0.3,0-0.4,0l-70.5,0C281.9,329,281.7,329,281.6,329L281.6,329z"></path>
</g>
</svg>
