<?xml version="1.0" encoding="UTF-8"?>
<!-- Generator: Adobe Illustrator 25.0.1, SVG Export Plug-In . SVG Version: 6.00 Build 0)  -->
<svg xmlns="http://www.w3.org/2000/svg" xmlns:xlink="http://www.w3.org/1999/xlink" version="1.1" id="Layer_1" x="0px" y="0px" viewBox="0 0 390 390" style="enable-background:new 0 0 390 390;" xml:space="preserve">
<style type="text/css">
	.st0{fill:#FEFEFE;}
	.st1{fill:#231F20;}
	.st2{fill:#23A85F;}
	.st3{fill:#00ADEE;}
	.st4{fill:#404041;}
	.st5{fill:#EC297B;}
	.st6{fill:#FFDD15;}
	.st7{fill:#2DDB7C;}
	.st8{fill:#73E0A6;}
	.st9{fill:#325C46;}
	.st10{fill:#22A960;}
	.st11{fill:#E0ECBC;}
	.st12{fill:#FCF7ED;}
	.st13{fill:#FFFFFF;}
	.st14{fill:#1DA75E;}
	.st15{fill:#81C99E;}
	.st16{fill:#12292C;}
	.st17{fill:#145D45;}
	.st18{fill:#FCDF80;}
	.st19{fill:#4890CD;}
	.st20{fill:#E9EADF;}
	.st21{fill:#9EB0A1;}
	.st22{fill:#3B4B40;}
	.st23{fill:#20A85F;}
	.st24{fill:#221F1F;}
	.st25{fill:#F05D58;}
	.st26{fill:#027782;}
</style>
<g>
	<path class="st0" d="M262,3.1c40.6,0,81.3,0,121.9-0.1c2.5,0,3.1,0.4,3.1,3c-0.1,125.9-0.1,251.9,0,377.8c0,2.8-0.8,3.2-3.3,3.2   c-125.8-0.1-251.6-0.1-377.4,0c-2.6,0-3.3-0.4-3.3-3.2C3.1,257.9,3.1,132,3,6c0-2.6,0.6-3,3.1-3c40.4,0.1,80.8,0.1,121.2,0.1   c-3.3,2.2-4.8,5.3-5.4,9.2c-0.3,2.3-1.1,4.6-1.9,6.8C108.3,51.4,84.9,69,51,73.1c-7.1,0.9-9,2.9-9,10.1c0,50.5,0,101,0,151.5   c0,5.5,0.1,11,0.9,16.4c6.6,46.4,30.7,80.9,72.6,101.7c24.7,12.2,50.7,21.8,76.1,32.7c2.5,1.1,4.8,0.6,7.2-0.4   c6.9-2.9,13.8-5.7,20.6-8.7c18.5-8,37.7-14.5,55.4-23.9c46.8-24.9,71.5-64.2,72.3-117.3c0.7-49.6,0.1-99.3,0.1-148.9   c0-11.4-0.9-12.3-12.3-13.5c-32.4-3.4-60.9-28.7-67.6-60.5C266.5,8.4,265.2,5.3,262,3.1z"></path>
	<path class="st1" d="M262,3.1c3.2,2.2,4.6,5.4,5.4,9.2c6.7,31.8,35.2,57.1,67.6,60.5c11.4,1.2,12.3,2.1,12.3,13.5   c0,49.6,0.5,99.3-0.1,148.9c-0.7,53.2-25.5,92.4-72.3,117.3c-17.8,9.4-37,16-55.4,23.9c-6.8,3-13.7,5.8-20.6,8.7   c-2.4,1-4.7,1.5-7.2,0.4c-25.4-10.8-51.4-20.4-76.1-32.7c-41.9-20.7-66-55.3-72.6-101.7c-0.8-5.4-0.9-10.9-0.9-16.4   c0-50.5,0-101,0-151.5c0-7.2,1.8-9.2,9-10.1C84.9,69,108.3,51.4,120,19.1c0.8-2.2,1.6-4.5,1.9-6.8c0.5-3.9,2.1-7,5.4-9.2   C172.2,3.1,217.1,3.1,262,3.1z M57,166.2c0,23.2-0.5,46.4,0.1,69.6c1.2,47.5,23.2,82.6,65.5,103.8c22.4,11.2,46.1,19.9,69.2,29.8   c2.1,0.9,3.8,0.9,5.9,0c20.5-8.7,41-17.3,61.5-26c46-19.5,73.1-60.3,73.1-110.4c0-47.3,0-94.5,0.1-141.8c0-2.6-0.6-3.8-3.4-4.3   c-37.4-7.5-62.5-29.1-74.6-65.4c-0.9-2.7-1.9-3.5-4.8-3.5c-36.4,0.1-72.8,0.1-109.2,0c-3.3,0-4.5,0.9-5.6,4   c-12.1,36-37.1,57.4-74.2,64.9c-3,0.6-3.6,1.7-3.6,4.5C57,116.3,57,141.3,57,166.2z"></path>
	<path class="st0" d="M57,166.2c0-24.9,0-49.9-0.1-74.8c0-2.9,0.6-3.9,3.6-4.5c37.1-7.4,62-28.9,74.2-64.9c1.1-3.1,2.3-4.1,5.6-4   c36.4,0.2,72.8,0.1,109.2,0c2.9,0,3.9,0.8,4.8,3.5c12.1,36.3,37.2,57.9,74.6,65.4c2.8,0.6,3.4,1.7,3.4,4.3   c-0.1,47.3-0.1,94.5-0.1,141.8c0,50.1-27.1,90.9-73.1,110.4c-20.5,8.7-41,17.2-61.5,26c-2.1,0.9-3.8,0.9-5.9,0   c-23.1-9.9-46.8-18.5-69.2-29.8c-42.3-21.2-64.3-56.4-65.5-103.8C56.5,212.6,57,189.4,57,166.2z M94.4,179.7c0,19.1,0,38.1,0,57.2   c0,3.6,0.2,7.2,0.9,10.7c5.1,28,20.7,48.1,46.5,59.9c16.7,7.7,33.9,14.3,50.8,21.5c1.5,0.6,2.7,0.6,4.2,0   c13.4-5.7,26.8-11.4,40.2-16.8c13.8-5.6,26.8-12.4,37.1-23.7c12.8-14,20.3-30.4,20.6-49.1c0.6-40.1,0.2-80.3,0.3-120.4   c0-2.2-0.7-3.4-2.7-4.2c-27.5-11.8-48.4-30.9-63-56.9c-1-1.8-2.1-2.4-4.1-2.4c-20.3,0.1-40.6,0.1-61,0c-2,0-3.1,0.7-4,2.5   c-14.4,25.9-35.3,44.7-62.3,56.7c-2.6,1.2-3.4,2.5-3.4,5.2C94.4,139.8,94.4,159.7,94.4,179.7z"></path>
	<path class="st2" d="M94.4,179.7c0-19.9,0-39.9-0.1-59.8c0-2.8,0.8-4.1,3.4-5.2c27-12,47.9-30.9,62.3-56.7c1-1.8,2-2.5,4-2.5   c20.3,0.1,40.6,0.1,61,0c2,0,3.1,0.6,4.1,2.4c14.6,26,35.5,45.2,63,56.9c2,0.9,2.7,2,2.7,4.2c-0.1,40.1,0.4,80.3-0.3,120.4   c-0.3,18.7-7.8,35.1-20.6,49.1c-10.3,11.3-23.2,18.1-37.1,23.7c-13.5,5.5-26.9,11.2-40.2,16.8c-1.5,0.6-2.7,0.7-4.2,0   c-16.9-7.2-34.1-13.9-50.8-21.5c-25.8-11.8-41.4-31.9-46.5-59.9c-0.6-3.5-0.8-7.2-0.9-10.7C94.3,217.8,94.4,198.7,94.4,179.7z    M170.8,154.1c-15,0-27.4,9.2-31.8,23.6c-5.5,18.1,1.6,37.3,18,48.3c10.6,7.1,21.4,13.7,31.9,20.8c4,2.6,7.4,2.6,11.4,0   c10.2-6.7,20.4-13.3,30.7-19.9c12.4-8,19.4-19.3,20.9-34c1.5-14-5.5-28.1-17.1-34.5c-12.4-6.8-26.9-5.4-38.1,3.8   c-1.8,1.5-2.7,1.3-4.3-0.1C186.2,156.7,179,154.1,170.8,154.1z"></path>
	<path class="st1" d="M170.8,154.1c8.2,0,15.4,2.6,21.6,7.9c1.6,1.4,2.5,1.6,4.3,0.1c11.2-9.2,25.7-10.6,38.1-3.8   c11.6,6.4,18.6,20.5,17.1,34.5c-1.5,14.7-8.5,26-20.9,34c-10.2,6.6-20.5,13.2-30.7,19.9c-3.9,2.6-7.4,2.7-11.4,0   c-10.6-7-21.4-13.7-31.9-20.8c-16.4-11-23.5-30.2-18-48.3C143.4,163.3,155.8,154.1,170.8,154.1z M171.1,169.1   c-8.6-0.1-15,4.6-17.6,12.8c-3.6,11.4,0.8,24.1,11.2,31.1c9.2,6.2,18.6,12,27.8,18.2c1.8,1.2,3,1,4.7-0.1   c8.9-5.9,18-11.6,26.9-17.5c7.8-5.1,12-12.4,13.1-21.6c1-9-3.2-17.6-10.4-21.1c-7.7-3.7-15.8-2-22.7,4.9c-8.4,8.4-10.1,8.4-18.4,0   C181.5,171.8,176.9,169.1,171.1,169.1z"></path>
	<path class="st2" d="M171.1,169.1c5.9,0,10.4,2.7,14.4,6.8c8.3,8.4,10,8.3,18.4,0c6.9-6.9,15-8.7,22.7-4.9   c7.2,3.5,11.4,12.1,10.4,21.1c-1,9.2-5.3,16.5-13.1,21.6c-8.9,5.9-18,11.6-26.9,17.5c-1.7,1.1-2.9,1.3-4.7,0.1   c-9.2-6.1-18.6-12-27.8-18.2c-10.4-7.1-14.8-19.7-11.2-31.1C156,173.7,162.5,169,171.1,169.1z"></path>
</g>
<rect x="-258.9" y="-207.6" class="st3" width="46.7" height="46.7"></rect>
<rect x="-371.5" y="-207.6" class="st1" width="46.7" height="46.7"></rect>
<rect x="-92.2" y="-207.6" class="st4" width="46.7" height="46.7"></rect>
<rect x="-315.2" y="-207.6" class="st2" width="46.7" height="46.7"></rect>
<rect x="-202.6" y="-207.6" class="st5" width="46.7" height="46.7"></rect>
<rect x="-146.2" y="-207.6" class="st6" width="46.7" height="46.7"></rect>
<rect x="287.8" y="-213" class="st7" width="57.5" height="57.5"></rect>
<rect x="148.9" y="-213" class="st2" width="57.5" height="57.5"></rect>
<rect x="218.3" y="-213" class="st8" width="57.5" height="57.5"></rect>
<rect x="10.1" y="-213" class="st9" width="57.5" height="57.5"></rect>
<rect x="79.5" y="-213" class="st10" width="57.5" height="57.5"></rect>
<rect x="289.7" y="-280.6" class="st11" width="57.5" height="57.5"></rect>
<rect x="360.3" y="-280.6" class="st12" width="57.5" height="57.5"></rect>
<rect x="430.8" y="-280.6" class="st13" width="57.5" height="57.5"></rect>
<rect x="148.6" y="-280.6" class="st14" width="57.5" height="57.5"></rect>
<rect x="219.1" y="-280.6" class="st15" width="57.5" height="57.5"></rect>
<rect x="7.5" y="-280.6" class="st16" width="57.5" height="57.5"></rect>
<rect x="78" y="-280.6" class="st17" width="57.5" height="57.5"></rect>
<rect x="632.3" y="-338" class="st18" width="63.6" height="63.6"></rect>
<rect x="697" y="-338" class="st19" width="63.6" height="63.6"></rect>
<rect x="632.3" y="-273.3" class="st20" width="63.6" height="63.6"></rect>
<rect x="567.6" y="-338" class="st21" width="63.6" height="63.6"></rect>
<rect x="567.6" y="-208.6" class="st22" width="63.6" height="63.6"></rect>
<rect x="632.3" y="-208.6" class="st23" width="63.6" height="63.6"></rect>
<rect x="697" y="-208.6" class="st24" width="63.6" height="63.6"></rect>
<rect x="697" y="-273.3" class="st25" width="63.6" height="63.6"></rect>
<rect x="567.6" y="-273.3" class="st26" width="63.6" height="63.6"></rect>
</svg>
